<svg aria-hidden="true" style="width:0;height:0;position:absolute;overflow:hidden" xmlns="http://www.w3.org/2000/svg"><defs><symbol id="icon-close-modal-r" viewBox="0 0 32 32"><path d="M7.501 6.727a2.257 2.257 0 0 0-.772.776l-.006.01a1.15 1.15 0 0 0 .005.99l-.003-.007c.075.149 1.313 1.427 3.745 3.864L14.105 16l-3.635 3.64c-2.432 2.437-3.671 3.715-3.745 3.864-.235.469-.113.977.34 1.431s.961.575 1.431.34c.149-.075 1.427-1.313 3.864-3.745L16 17.895l3.64 3.635c2.437 2.432 3.715 3.671 3.864 3.745.469.235.977.113 1.431-.34s.575-.961.34-1.431c-.075-.149-1.313-1.427-3.745-3.864L17.895 16l3.635-3.64c2.432-2.437 3.671-3.715 3.745-3.864.235-.469.113-.977-.34-1.431s-.961-.575-1.431-.34c-.149.075-1.427 1.313-3.864 3.745L16 14.105l-3.64-3.635C9.923 8.038 8.645 6.799 8.496 6.725a1.173 1.173 0 0 0-1.002.005l.007-.003z"/></symbol></defs></svg>